# xmcd
#
# Track frame offsets:
#	150
#	15398
#	34980
#	54171
#	77773
#	103950
#
# Disc length: 1705 seconds
#
# Revision: 0
# Processed by: cddbd v1.5.2PL0 Copyright (c) Steve Scherf et al.
# Submitted via: EasyCDDAExtractor 8.2.1.1
#
DISCID=4006a706
DTITLE=Winter - El equilibrio
DYEAR=2006
DGENRE=Hardcore
TTITLE0=El Urbano
TTITLE1=Llenaré tu corazón
TTITLE2=Diálogo
TTITLE3=Recuerdos de una Disculpa
TTITLE4=Sueño Mediodía
TTITLE5=Se aprendió guerra
EXTD=
EXTT0=
EXTT1=
EXTT2=
EXTT3=
EXTT4=
EXTT5=
PLAYORDER=
